<?xml version="1.0" standalone="no"?>
<!DOCTYPE svg PUBLIC "-//W3C//DTD SVG 20010904//EN"
 "http://www.w3.org/TR/2001/REC-SVG-20010904/DTD/svg10.dtd">
<svg version="1.0" xmlns="http://www.w3.org/2000/svg"
 width="592.000000pt" height="611.000000pt" viewBox="0 0 592.000000 611.000000"
 preserveAspectRatio="xMidYMid meet">

<g transform="translate(0.000000,611.000000) scale(0.100000,-0.100000)"
fill="#000000" stroke="none">
<path d="M2668 5984 c-87 -57 -90 -102 -15 -222 69 -109 104 -188 123 -275 16
-78 19 -328 4 -357 -6 -11 -26 -21 -52 -25 -117 -19 -323 -85 -476 -152 -41
-18 -49 -13 -57 40 -13 77 -66 231 -112 322 -90 178 -180 268 -347 346 -117
55 -186 49 -236 -21 -31 -43 -36 -90 -14 -135 18 -38 22 -41 164 -101 66 -28
163 -130 204 -214 42 -86 91 -276 100 -384 1 -13 -31 -45 -104 -101 -57 -46
-109 -81 -115 -78 -13 6 -53 90 -86 183 -50 142 -103 224 -222 343 -86 84
-160 137 -193 137 -41 0 -102 -38 -130 -80 -41 -62 -31 -86 89 -209 115 -118
165 -189 213 -304 39 -93 99 -204 125 -233 10 -11 19 -25 19 -31 0 -10 -97
-142 -113 -154 -5 -3 -59 44 -120 105 -113 112 -224 195 -345 255 -97 49 -269
103 -342 109 -60 4 -68 2 -98 -23 -68 -57 -82 -133 -35 -185 22 -24 50 -36
137 -60 214 -60 350 -140 506 -299 58 -59 113 -121 122 -138 17 -29 16 -31
-14 -94 -16 -35 -40 -91 -53 -124 -13 -33 -29 -61 -37 -63 -8 -2 -39 13 -69
33 -143 94 -321 118 -445 59 -87 -41 -116 -123 -73 -212 17 -34 32 -49 65 -64
41 -18 46 -18 94 -2 57 19 121 14 173 -12 49 -25 164 -113 171 -130 3 -9 1
-46 -4 -82 -6 -37 -14 -128 -18 -202 l-7 -135 -53 -6 c-246 -31 -474 -142
-658 -324 -115 -114 -169 -184 -220 -285 l-35 -71 23 -42 c15 -26 39 -50 66
-65 73 -41 100 -22 202 134 82 126 189 225 340 315 76 46 323 117 348 100 7
-4 72 -236 72 -256 0 -2 -44 -32 -97 -68 -217 -144 -344 -313 -389 -515 -20
-90 -16 -267 8 -323 42 -96 186 -105 253 -15 18 25 20 42 20 174 l0 147 37 66
c20 36 58 85 85 110 60 56 170 132 182 125 5 -3 39 -60 76 -127 59 -108 65
-123 52 -137 -21 -24 -73 -131 -98 -199 -11 -32 -27 -71 -34 -88 -42 -95 -105
-410 -105 -527 0 -63 16 -90 70 -118 31 -16 45 -18 67 -10 87 32 108 67 117
200 4 52 11 120 17 150 24 129 112 380 133 380 6 0 46 -35 88 -77 l76 -78 6
-85 c3 -47 16 -181 27 -297 20 -199 21 -220 6 -318 -24 -168 -61 -230 -215
-353 -70 -56 -68 -123 8 -197 32 -31 48 -39 89 -43 65 -6 121 25 212 118 126
130 189 295 206 537 5 80 -6 246 -23 336 -7 37 17 45 55 18 35 -25 191 -103
303 -151 l77 -33 11 -51 c22 -101 50 -282 50 -321 0 -107 -56 -230 -144 -314
-63 -61 -55 -140 19 -196 56 -43 126 -46 186 -7 57 37 131 131 170 219 58 127
74 304 44 478 -10 57 -12 92 -6 98 6 6 45 5 108 -3 138 -18 365 -16 512 5 139
19 141 19 141 -49 0 -60 29 -243 51 -326 11 -41 43 -121 71 -178 59 -120 141
-211 248 -276 82 -50 130 -54 183 -13 51 39 72 74 71 119 -2 47 -29 80 -94
113 -89 46 -180 168 -212 285 -35 126 -72 396 -57 416 5 6 27 16 49 23 67 20
251 111 382 190 l37 23 33 -48 c90 -129 177 -210 278 -258 125 -59 301 -45
390 31 34 30 40 40 40 74 0 48 -11 72 -53 117 -44 46 -94 57 -164 37 -52 -15
-60 -15 -98 -1 -23 9 -53 29 -68 44 -35 37 -107 162 -107 187 0 12 32 51 76
95 42 41 101 105 132 143 l55 68 31 -25 c156 -125 415 -266 489 -266 32 0 84
35 108 72 15 25 19 45 16 84 -5 79 -31 106 -160 168 -108 52 -246 145 -296
199 l-24 27 51 110 c29 60 70 164 92 231 22 68 42 124 43 126 2 1 28 -7 58
-19 81 -33 240 -32 329 1 120 45 214 121 275 221 59 97 42 175 -47 221 -70 36
-120 17 -172 -64 -57 -90 -120 -127 -215 -127 -54 0 -145 23 -165 41 -5 4 -9
110 -10 236 -2 176 -6 250 -21 327 l-19 99 30 24 c34 29 167 94 240 118 57 18
111 64 120 101 8 32 -3 91 -23 121 -9 13 -34 33 -55 44 -34 17 -44 18 -76 8
-81 -26 -151 -54 -226 -92 -92 -45 -87 -48 -132 61 -15 37 -34 74 -41 83 -20
24 -16 35 27 71 150 123 228 339 219 604 -5 130 -25 174 -93 205 -51 23 -88
24 -133 2 -66 -31 -73 -56 -73 -249 l0 -171 -36 -72 c-38 -76 -78 -110 -94
-81 -12 21 -122 159 -154 193 -26 28 -33 52 -18 59 21 9 125 199 176 322 47
114 47 145 -3 198 -35 38 -43 42 -97 46 -50 3 -65 0 -94 -20 -36 -24 -43 -36
-105 -173 -53 -117 -96 -185 -118 -185 -10 0 -44 19 -75 43 -31 24 -78 56
-104 73 -27 16 -48 34 -48 39 0 6 18 29 41 50 169 163 247 397 208 621 -21
120 -109 162 -205 99 -51 -33 -59 -60 -59 -195 0 -118 -2 -129 -29 -185 -21
-43 -57 -88 -127 -157 -54 -54 -105 -98 -115 -98 -16 0 -265 78 -273 85 -2 2
9 34 23 71 44 110 69 284 64 454 -3 110 -8 153 -21 177 -54 102 -206 124 -263
38 -14 -21 -15 -44 -9 -157 4 -80 2 -167 -4 -219 -12 -92 -59 -253 -85 -294
-16 -25 -20 -26 -114 -23 -97 3 -97 3 -94 28 2 14 4 81 4 150 1 98 -4 145 -22
220 -41 170 -137 359 -219 431 -39 35 -49 39 -95 38 -37 0 -62 -7 -88 -25z"/>
</g>
</svg>
